<svg width="48" height="48" viewBox="0 0 48 48" fill="none" xmlns="http://www.w3.org/2000/svg">
<path d="M24.4923 22.881C24.3383 22.8653 24.1536 22.8653 23.9842 22.881C22.2171 22.82 20.5427 22.0623 19.3156 20.7684C18.0886 19.4745 17.4052 17.746 17.4102 15.9489C17.4102 12.1151 20.4586 9.00113 24.246 9.00113C25.1426 8.98469 26.0337 9.14792 26.8683 9.48149C27.7029 9.81507 28.4647 10.3125 29.1102 10.9453C29.7557 11.5781 30.2722 12.3339 30.6303 13.1696C30.9884 14.0053 31.181 14.9045 31.1972 15.8159C31.2134 16.7272 31.0528 17.6329 30.7246 18.4812C30.3964 19.3295 29.907 20.1038 29.2844 20.7598C28.6618 21.4159 27.9181 21.9409 27.0959 22.3048C26.2737 22.6688 25.389 22.8645 24.4923 22.881ZM16.7944 28.6551C13.0685 31.1901 13.0685 35.3212 16.7944 37.8406C21.0282 40.7198 27.9718 40.7198 32.2056 37.8406C35.9315 35.3056 35.9315 31.1745 32.2056 28.6551C27.9872 25.7915 21.0436 25.7915 16.7944 28.6551Z" stroke="#08120F" stroke-width="1.5" stroke-linecap="round" stroke-linejoin="round"/>
</svg>
