<svg width="48" height="48" viewBox="0 0 48 48" fill="none" xmlns="http://www.w3.org/2000/svg">
<path d="M40 40L36.8 36.8M23.2 38.4C25.1961 38.4 27.1726 38.0068 29.0168 37.243C30.8609 36.4791 32.5366 35.3595 33.948 33.948C35.3595 32.5366 36.4791 30.8609 37.243 29.0168C38.0068 27.1726 38.4 25.1961 38.4 23.2C38.4 21.2039 38.0068 19.2274 37.243 17.3832C36.4791 15.5391 35.3595 13.8634 33.948 12.452C32.5366 11.0405 30.8609 9.9209 29.0168 9.15703C27.1726 8.39316 25.1961 8 23.2 8C19.1687 8 15.3025 9.60142 12.452 12.452C9.60142 15.3025 8 19.1687 8 23.2C8 27.2313 9.60142 31.0975 12.452 33.948C15.3025 36.7986 19.1687 38.4 23.2 38.4Z" stroke="#08120F" stroke-width="1.5" stroke-linecap="round" stroke-linejoin="round"/>
</svg>
