<svg width="49" height="48" viewBox="0 0 49 48" fill="none" xmlns="http://www.w3.org/2000/svg">
<path fill-rule="evenodd" clip-rule="evenodd" d="M31.0625 17.7368C34.0655 17.7368 36.5 15.3333 36.5 12.3684C36.5 9.40352 34.0655 7 31.0625 7C28.0595 7 25.625 9.40352 25.625 12.3684C25.625 13.2224 25.827 14.0298 26.1863 14.7466L16.9022 20.326C15.9103 19.283 14.501 18.6316 12.9375 18.6316C9.93445 18.6316 7.5 21.0351 7.5 24C7.5 26.9649 9.93445 29.3684 12.9375 29.3684C14.4439 29.3684 15.8073 28.7636 16.792 27.7865L26.0314 33.5914C25.7695 34.2204 25.625 34.9093 25.625 35.6316C25.625 38.5965 28.0595 41 31.0625 41C34.0655 41 36.5 38.5965 36.5 35.6316C36.5 32.6667 34.0655 30.2632 31.0625 30.2632C29.2781 30.2632 27.6944 31.1118 26.703 32.4225L17.6264 26.7199C18.1021 25.9223 18.375 24.9926 18.375 24C18.375 23.0629 18.1318 22.1819 17.7044 21.4152L26.9376 15.8664C27.9348 17.0116 29.4128 17.7368 31.0625 17.7368ZM31.0625 16.3947C33.3148 16.3947 35.1406 14.5921 35.1406 12.3684C35.1406 10.1447 33.3148 8.34211 31.0625 8.34211C28.8102 8.34211 26.9844 10.1447 26.9844 12.3684C26.9844 14.5921 28.8102 16.3947 31.0625 16.3947ZM35.1406 35.6316C35.1406 37.8553 33.3148 39.6579 31.0625 39.6579C28.8102 39.6579 26.9844 37.8553 26.9844 35.6316C26.9844 33.4079 28.8102 31.6053 31.0625 31.6053C33.3148 31.6053 35.1406 33.4079 35.1406 35.6316ZM17.0156 24C17.0156 26.2237 15.1898 28.0263 12.9375 28.0263C10.6852 28.0263 8.85938 26.2237 8.85938 24C8.85938 21.7763 10.6852 19.9737 12.9375 19.9737C15.1898 19.9737 17.0156 21.7763 17.0156 24Z" fill="white"/>
</svg>
