<svg width="24" height="24" viewBox="0 0 24 24" fill="none" xmlns="http://www.w3.org/2000/svg">
<path d="M1.04907e-06 12C1.3273e-06 8.8174 1.26428 5.76515 3.51472 3.51472C5.76516 1.26428 8.8174 -1.3273e-06 12 -1.04907e-06C15.1826 -7.70842e-07 18.2348 1.26428 20.4853 3.51472C22.7357 5.76515 24 8.8174 24 12L12 12L1.04907e-06 12Z" fill="#215DB5"/>
<path d="M24 12C24 13.5759 23.6896 15.1363 23.0866 16.5922C22.4835 18.0481 21.5996 19.371 20.4853 20.4853C19.371 21.5996 18.0481 22.4835 16.5922 23.0866C15.1363 23.6896 13.5759 24 12 24C10.4241 24 8.86371 23.6896 7.4078 23.0866C5.95189 22.4835 4.62902 21.5996 3.51472 20.4853C2.40042 19.371 1.5165 18.0481 0.913445 16.5922C0.310389 15.1363 -1.37766e-07 13.5759 0 12L12 12H24Z" fill="#F9D548"/>
</svg>
